<?xml version="1.0" encoding="utf-8"?>
<!-- Generator: Adobe Illustrator 25.4.1, SVG Export Plug-In . SVG Version: 6.00 Build 0)  -->
<svg version="1.1" id="图层_1" xmlns="http://www.w3.org/2000/svg" xmlns:xlink="http://www.w3.org/1999/xlink" x="0px" y="0px"
	 viewBox="0 0 296.2 81.6" style="enable-background:new 0 0 296.2 81.6;" xml:space="preserve">
<style type="text/css">
	.st0{fill:url(#SVGID_1_);}
	.st1{fill:url(#SVGID_00000003090918178332562570000016280961695747845766_);}
	.st2{fill:url(#SVGID_00000109014045564440593990000001418240698832172692_);}
	.st3{fill:url(#SVGID_00000021800948737749863680000012215610097287654053_);}
	.st4{fill:url(#SVGID_00000122698627512929549350000013491458918206997923_);}
	.st5{fill:url(#SVGID_00000127754777645557884100000016526570342323353245_);}
	.st6{fill:url(#SVGID_00000036252365533540245300000015427956836231008405_);}
	.st7{fill:#209D2A;}
	.st8{font-family:'MicrosoftYaHei';}
	.st9{font-size:24px;}
	.st10{letter-spacing:2;}
	.st11{fill:url(#SVGID_00000081632494193963540100000014233395852006023303_);}
	.st12{fill:url(#SVGID_00000037677621256014272760000016886559116292348586_);}
	.st13{fill:url(#SVGID_00000120526825546868001200000014445097473925461633_);}
	.st14{fill:#FFFFFF;}
</style>
<linearGradient id="SVGID_1_" gradientUnits="userSpaceOnUse" x1="53" y1="-3" x2="53" y2="24" gradientTransform="matrix(1 0 0 -1 -29.7 54)">
	<stop  offset="0" style="stop-color:#4444BE"/>
	<stop  offset="1" style="stop-color:#279EDE"/>
</linearGradient>
<path class="st0" d="M12.3,32.6V52c0,0,0.1,5,5,5h17v-5h-17V30h-5V32.6z"/>
<linearGradient id="SVGID_00000054265899008171614660000015232076615006255264_" gradientUnits="userSpaceOnUse" x1="78.5" y1="-3" x2="78.5" y2="23.6417" gradientTransform="matrix(1 0 0 -1 -29.7 54)">
	<stop  offset="0" style="stop-color:#4444BE"/>
	<stop  offset="1" style="stop-color:#279EDE"/>
</linearGradient>
<path style="fill:url(#SVGID_00000054265899008171614660000015232076615006255264_);" d="M36.8,57l11-21l10,16h-10c-0.1,0.1-3,5-3,5
	h22l-14-23c-2.2-4.5-7.2-5.2-10,0l-12,23H36.8z"/>
<linearGradient id="SVGID_00000134955343725166208970000003460986861629433759_" gradientUnits="userSpaceOnUse" x1="112.5" y1="-3" x2="112.5" y2="24" gradientTransform="matrix(1 0 0 -1 -29.7 54)">
	<stop  offset="0" style="stop-color:#4444BE"/>
	<stop  offset="1" style="stop-color:#279EDE"/>
</linearGradient>
<path style="fill:url(#SVGID_00000134955343725166208970000003460986861629433759_);" d="M89.3,57c3.8,0,7-4.1,7-8l0,0
	c0-2.2-1-6-3-6c2,0,3-2.8,3-5l0,0c0-3.9-2.9-8-7-8h-20v27H89.3z M73.3,41c0,1.3,0,5,0,5h14c1.9,0,4,0.6,4,3l0,0c0,2.3-2,3-4,3h-14
	V35h14c1.9,0,4,0.9,4,3c0,1.9-2,3-4,3H73.3z"/>
<linearGradient id="SVGID_00000158741203955741636610000003537081355401776290_" gradientUnits="userSpaceOnUse" x1="140.5" y1="8" x2="140.5" y2="13" gradientTransform="matrix(1 0 0 -1 -29.7 54)">
	<stop  offset="0" style="stop-color:#4444BE"/>
	<stop  offset="1" style="stop-color:#279EDE"/>
</linearGradient>
<path style="fill:url(#SVGID_00000158741203955741636610000003537081355401776290_);" d="M118.8,46v-5h-16c0,2,0,3,0,5H118.8z"/>
<linearGradient id="SVGID_00000040576547689079819360000009328534324707864980_" gradientUnits="userSpaceOnUse" x1="211.0042" y1="-2.9887" x2="211.0042" y2="22.9913" gradientTransform="matrix(1 0 0 -1 -29.7 54)">
	<stop  offset="0" style="stop-color:#4444BE"/>
	<stop  offset="1" style="stop-color:#279EDE"/>
</linearGradient>
<path style="fill:url(#SVGID_00000040576547689079819360000009328534324707864980_);" d="M188.5,32.5c-6.1-3.3-13.7-1.1-17,5
	c-1.1,2-1.7,4.3-1.6,6.6c-0.1,3.3,1.1,6.6,3.3,9.1c2.2,2.6,5.3,3.8,9.2,3.8c4,0.2,7.9-1.8,10.2-5.1l-4.5-3.4c-1.3,1.9-3.6,3-5.9,2.9
	c-1.9,0.1-3.6-0.7-4.9-2c-1.3-1.4-1.9-3.3-1.9-5.2c-0.1-2,0.6-3.9,1.9-5.3c1.3-1.4,3.2-2.2,5.1-2.1c1,0,2.1,0.2,3,0.6
	c1,0.5,1.9,1.2,2.6,2.1l4.7-2.9C191.7,34.9,190.2,33.5,188.5,32.5z"/>
<linearGradient id="SVGID_00000127730621375158876230000016525311855354694326_" gradientUnits="userSpaceOnUse" x1="236.4738" y1="-3.0107" x2="236.4738" y2="20.98" gradientTransform="matrix(1 0 0 -1 -29.7 54)">
	<stop  offset="0" style="stop-color:#4444BE"/>
	<stop  offset="1" style="stop-color:#279EDE"/>
</linearGradient>
<path style="fill:url(#SVGID_00000127730621375158876230000016525311855354694326_);" d="M199.4,36.1c-2.4,2.3-3.7,5.5-3.6,8.9
	c-0.1,3.1,1.1,6.2,3.2,8.5c1.9,2.2,4.7,3.5,7.7,3.5c2,0,3.9-0.5,5.6-1.6c1.7-1.1,3.1-2.6,4-4.4c1.9-3.8,1.9-8.2,0-12
	c-0.9-1.8-2.3-3.3-4.1-4.4c-1.7-1.1-3.6-1.6-5.6-1.6C203.9,33,201.3,34.2,199.4,36.1L199.4,36.1z M210.9,40.2c2.2,2.8,2.2,6.7,0,9.6
	c-2,2.3-5.4,2.5-7.6,0.5c-0.2-0.2-0.4-0.3-0.5-0.5c-2.2-2.8-2.2-6.8,0-9.6c2-2.3,5.5-2.5,7.7-0.5C210.6,39.9,210.8,40,210.9,40.2
	L210.9,40.2z"/>
<linearGradient id="SVGID_00000038408141103601524380000010059857081922874025_" gradientUnits="userSpaceOnUse" x1="114.5" y1="110" x2="114.5" y2="167" gradientTransform="matrix(1 0 0 -1 -111.7 167)">
	<stop  offset="0" style="stop-color:#4444BE"/>
	<stop  offset="1" style="stop-color:#279EDE"/>
</linearGradient>
<path style="fill:url(#SVGID_00000038408141103601524380000010059857081922874025_);" d="M0.3,57h5V10h-5V57z M0.3,0v5h5V0H0.3z"/>
<text transform="matrix(1 0 0 1 11.77 21.02)" class="st7 st8 st9 st10">实验空间</text>
<linearGradient id="SVGID_00000165226465532137681250000000516618077568563903_" gradientUnits="userSpaceOnUse" x1="191" y1="-3" x2="191" y2="2" gradientTransform="matrix(1 0 0 -1 -29.7 54)">
	<stop  offset="0" style="stop-color:#4444BE"/>
	<stop  offset="1" style="stop-color:#279EDE"/>
</linearGradient>
<path style="fill:url(#SVGID_00000165226465532137681250000000516618077568563903_);" d="M163.8,57v-5h-5c0,2,0,3,0,5H163.8z"/>
<linearGradient id="SVGID_00000134246261704066828610000002388386777789728409_" gradientUnits="userSpaceOnUse" x1="251.49" y1="110" x2="251.49" y2="138" gradientTransform="matrix(1 0 0 -1 -114.7 167)">
	<stop  offset="0" style="stop-color:#4444BE"/>
	<stop  offset="1" style="stop-color:#279EDE"/>
</linearGradient>
<path style="fill:url(#SVGID_00000134246261704066828610000002388386777789728409_);" d="M128.5,29h-6.7l14,17l9.1,11h6.8l-10.9-14
	L128.5,29z M151.8,29h-6.3l-6.7,6.7l3.9,4.6L151.8,29z M121.8,57h6.7l6.2-7.8l-3.9-4.9L121.8,57z"/>
<linearGradient id="SVGID_00000079467578697915670950000013166260933131064475_" gradientUnits="userSpaceOnUse" x1="268.505" y1="-3" x2="268.505" y2="21.0066" gradientTransform="matrix(1 0 0 -1 -29.7 54)">
	<stop  offset="0" style="stop-color:#4444BE"/>
	<stop  offset="1" style="stop-color:#279EDE"/>
</linearGradient>
<path style="fill:url(#SVGID_00000079467578697915670950000013166260933131064475_);" d="M222.8,57h5V43c-0.1-1.1,0.2-2.2,1-3
	c0.8-0.8,1.9-1.2,3-1c1.1-0.1,2.2,0.3,3,1c0.7,0.9,1,1.9,1,3v14h6V43c-0.1-1.1,0.3-2.2,1-3c0.9-0.6,1.9-1,3-1c1.2,0,2-0.1,3,1
	c0.8,0.9,1.1,2.1,1,4v13h5V40c-0.1-2.3-1.3-4.4-3.2-5.7c-1.5-0.9-3.1-1.3-4.8-1.3c-1.4-0.1-2.8,0.3-4,1c-1.6,1-3,2.4-4,4
	c-0.7-1.5-2.6-3-4-4c-1.2-0.7-2.6-1-4-1c-3.6,0.3-5,2-5,2c-1.7,1.1-2.8,3-3,5L222.8,57L222.8,57z"/>
<path class="st14" d="M14.8,81.5h-1.3v-0.8H1.3v0.8H0V65.8h14.8V81.5z M13.5,79.5V67H1.3v12.4L13.5,79.5z M11.8,68.7v1.2H8.1v2.6
	h3.2v1.2H8.1v2.9h4.3v1.2H2.5v-1.2h4.3v-2.9H3.5v-1.2h3.2v-2.6H2.9v-1.2H11.8z M11.4,76l-1,0.5C10,75.7,9.6,75,9.2,74.4l1-0.3
	C10.6,74.6,11,75.3,11.4,76z"/>
<path class="st14" d="M27.8,74.8c0.3,0.9,0.5,1.8,0.5,2.8c0.1,1-0.1,2.1-0.6,3c-0.4,0.6-1.4,0.9-3,0.9h-0.6l-0.4-1.1h0.9
	c1.1,0,1.7-0.2,2-0.5c0.4-0.7,0.6-1.5,0.5-2.3c0-0.3,0-0.6-0.1-0.9c-2.4,1.8-5.1,3.1-7.9,3.9l-0.7-1.1c3-0.8,5.8-2.1,8.3-4
	c-0.1-0.5-0.3-0.9-0.5-1.3c-2.1,1.5-4.4,2.6-6.9,3.2l-0.7-1.1c2.5-0.6,4.9-1.6,7-3.1c-0.2-0.3-0.5-0.6-0.7-0.9
	c-0.1,0.1-0.3,0.1-0.4,0.2c-1.6,0.7-3.2,1.3-4.9,1.7L19,73.1c1.6-0.3,3.2-0.8,4.7-1.5c0.6-0.3,1.2-0.6,1.8-0.9h-4.8v-1.2h10.8v1.2
	h-4.1c-0.5,0.3-1,0.7-1.5,1c0.6,0.6,1.1,1.3,1.5,2.1c1.7-0.5,3.3-1.2,4.8-2.2l0.9,0.9c-1,0.6-2,1.2-3.1,1.6c0.8,2.2,2.2,4.1,4.1,5.4
	l-0.9,1.1c-2-1.6-3.5-3.7-4.3-6.1L27.8,74.8z M26.9,66.6h6.8v3.1h-1.3v-1.9H19.8v1.9h-1.3v-3.1h7.1c-0.2-0.5-0.4-1-0.6-1.5l1.3-0.2
	C26.5,65.4,26.8,65.9,26.9,66.6z"/>
<path class="st14" d="M44.8,74.3c-1.1,0-1.7-0.5-1.7-1.6v-0.6l-2.9,0.3l-0.2-1.1l3.1-0.3v-1.7h-3.8V74c0.1,2.6-0.5,5.3-1.7,7.6
	l-1-0.9c1-2.1,1.5-4.4,1.5-6.7v-5.8h5.7v-3.3h1.3V66H51v1h-5.8v1.1h7.2v0.6c-0.2,0.9-0.5,1.8-0.9,2.7L50.2,71
	c0.3-0.6,0.5-1.1,0.7-1.8h-6.5v1.6l4.9-0.5l0.2,1.1L44.5,72v0.5c0,0.5,0.2,0.8,0.7,0.8h3.9c0.3,0,0.6,0,0.9-0.2
	c0.3-0.4,0.5-0.9,0.5-1.4l1.2,0.4c-0.1,1.1-0.4,1.7-0.8,2c-0.5,0.2-1,0.3-1.6,0.3L44.8,74.3z M45.1,75v5h2v-5h1.2v5h4.4v1.2H39.4V80
	h4.4v-5L45.1,75z M43,78.8l-1.1,0.5c-0.5-1.3-1-2.5-1.7-3.7l1.1-0.4C41.9,76.3,42.5,77.6,43,78.8z M52.1,75.7
	c-0.5,1.3-1.2,2.5-2,3.6L49,78.8c0.8-1.1,1.5-2.3,2-3.6L52.1,75.7z"/>
<path class="st14" d="M56,81.2L55.7,80c0.5,0.1,0.9,0.1,1.4,0.1c0.4,0,0.7-0.3,0.7-0.8v-4.2c-0.7,0.3-1.3,0.5-2,0.7l-0.3-1.2
	c0.8-0.2,1.6-0.4,2.3-0.7v-4.3h-2.1v-1.2h2.1V65H59v3.3h1.8v1.2H59v3.8c0.7-0.3,1.3-0.6,1.9-1v1.3c-0.6,0.3-1.3,0.7-1.9,0.9v5
	c0,1.1-0.5,1.7-1.5,1.7L56,81.2z M61.1,78c0.4-0.1,0.6-0.5,0.7-0.9V65.5H63v11.8c0.9-0.4,1.7-0.8,2.6-1.3l0.3,1.1
	c-1.4,0.8-2.9,1.5-4.4,2L61.1,78z M70.1,65.2c0,2.9-0.2,5.9-0.8,8.7c-0.1,0.6-0.3,1.2-0.5,1.8c1.1,1.6,2.2,3.3,3.1,5l-1,0.7
	c-0.8-1.6-1.6-3.1-2.6-4.5c-0.9,1.8-2.1,3.3-3.7,4.6l-0.8-1c2.1-1.7,3.6-4.1,4.3-6.7c0.6-2.9,0.9-5.8,0.8-8.7L70.1,65.2z M67.4,71.8
	l-1.1,0.5c-0.6-1.7-1.3-3.3-2.1-4.8l1.1-0.4C66.1,68.6,66.8,70.1,67.4,71.8L67.4,71.8z"/>
<path class="st14" d="M79.3,65.5c-0.4,1.2-0.9,2.4-1.5,3.6v12.5h-1.3V71.1c-0.6,0.9-1.3,1.8-2.1,2.6l-0.4-1.4
	c1.9-2.2,3.3-4.7,4.1-7.4L79.3,65.5z M79.3,69v-1.2h5c-0.3-0.9-0.6-1.8-1.1-2.7l1.4-0.2c0.3,0.8,0.6,1.8,0.9,2.9h4.7V69h-7v1.6
	c0,0.5,0,1,0,1.5h5.9c0.1,2.5-0.1,5-0.4,7.4c-0.2,1.1-1.1,1.8-2.2,1.8c-0.8,0-1.7,0-2.7-0.1l-0.4-1.2c1.1,0,2.1,0.1,2.9,0.1
	c0.8,0,1.1-0.5,1.3-1.3s0.2-2.7,0.2-5.5h-4.7c-0.4,3.6-1.5,6.2-3.3,8.1l-1-0.9c2.1-2,3.2-5.3,3.2-9.9V69H79.3z"/>
<path class="st14" d="M100.6,66.3l0.2-1.4l1.3,0.2c0,0.4-0.1,0.8-0.1,1.2h6.4v1.1h-6.6c-0.1,0.4-0.2,0.8-0.2,1.2h5.1v8.5h2.4v1.2
	h-5.4c1.8,0.6,3.5,1.3,5.1,2.3l-0.7,1c-1.6-1-3.3-1.8-5.1-2.4l0.6-0.9h-5.1l0.8,0.9c-1.6,1.1-3.3,1.9-5.1,2.4l-0.5-1.1
	c1.7-0.4,3.4-1.2,4.9-2.2H93v-1.2h2.7v-8.5h4.4c0.1-0.4,0.2-0.8,0.2-1.2h-6.7v-1.1H100.6z M105.3,70.8v-1.1h-8.4v1.1H105.3z
	 M105.3,72.9v-1.1h-8.4v1.1H105.3z M105.3,75v-1.1h-8.4V75L105.3,75z M105.3,77.1V76h-8.4v1.2L105.3,77.1z"/>
<path class="st14" d="M112.7,81.5l-0.7-1.1c3.4-0.9,5.7-2,7-3.5c0.2-0.3,0.4-0.5,0.6-0.8h-7.4v-1.2h8.1c0.5-1.2,0.7-2.5,0.8-3.8V69
	h1.3v2.1c0,1.3-0.2,2.6-0.7,3.8h5.8v1.2H121c-0.2,0.3-0.3,0.6-0.5,0.8c2.4,0.9,4.8,2.1,7,3.5l-0.7,1.1c-2.2-1.5-4.6-2.7-7.1-3.7
	C118.4,79.4,116,80.6,112.7,81.5z M127,70.2h-1.3V68h-12.1v2.2h-1.3v-3.5h6.8c-0.2-0.6-0.5-1.1-0.7-1.7l1.3-0.2
	c0.2,0.5,0.5,1.2,0.7,1.9h6.5L127,70.2z M118.1,73.4l-0.7,1c-1.1-0.8-2.3-1.5-3.6-2l0.6-1C115.8,71.9,117,72.6,118.1,73.4z
	 M119.9,70.9l-0.7,1c-1.1-0.9-2.4-1.6-3.7-2.1l0.7-1C117.5,69.3,118.7,70.1,119.9,70.9z"/>
<path class="st14" d="M134.1,77.2c-1.3,0.5-2.6,0.8-4,1.1L130,77c1.4-0.2,2.8-0.5,4.2-1L134.1,77.2z M130.4,67v-1.2h5.6l-0.9,7.4
	h1.1c0,4.1-0.2,6.5-0.5,7.1c-0.5,0.7-1.4,1.1-2.2,0.9c-0.4,0-0.9,0-1.3-0.1L132,80c0.6,0.1,1.1,0.1,1.3,0.1c0.9,0,1.4-0.3,1.6-0.8
	c0.3-1.7,0.4-3.3,0.3-5h-4.6l0.9-6.2l1.2,0.1l-0.7,5h2.1l0.8-6.2L130.4,67z M137,72.2l-0.7-1c2-1.6,3.7-3.7,4.7-6.1h1.2
	c1,2.4,2.6,4.5,4.7,6l-0.7,1.1c-0.7-0.6-1.4-1.2-2.1-1.9v1.1H139v-1.1C138.4,71,137.7,71.6,137,72.2z M142.7,79.6
	c0.8-2.3,1.4-4.7,1.8-7.1l1.2,0.3c-0.4,2.3-1,4.6-1.8,6.8h2.7v1.2h-9.8v-1.2H142.7z M140,78.2l-1.1,0.3c-0.4-1.7-0.9-3.4-1.6-5.1
	l1.1-0.4C139.1,74.7,139.6,76.4,140,78.2z M141.6,66.3c-0.6,1.4-1.5,2.7-2.5,3.9h5C143,69,142.2,67.7,141.6,66.3z M142.6,77.4
	l-1.1,0.3c-0.3-1.6-0.7-3.3-1.3-4.8l1.1-0.3C141.8,74.1,142.2,75.8,142.6,77.4L142.6,77.4z"/>
<path class="st14" d="M152.4,66.7v-1.6h1.2v1.6h1.9v1.2h-1.9v1.8h1.1c1-1.2,1.8-2.5,2.5-3.9l1,0.5c-0.6,1.2-1.3,2.3-2.1,3.4h1.3v1.2
	h-2.2c-0.5,0.6-1,1.1-1.5,1.6h3.1v0.9c-0.7,0.8-1.4,1.5-2.2,2.2v0.9c1.1-0.2,2.1-0.4,3.2-0.7V77c-1.1,0.3-2.1,0.5-3.2,0.6v2.1
	c0.1,0.8-0.4,1.5-1.2,1.6c-0.1,0-0.3,0-0.4,0h-1.7l-0.3-1.2c0.7,0,1.2,0.1,1.6,0.1c0.4,0,0.8-0.2,0.8-0.6c0-0.1,0-0.1,0-0.2v-1.6
	c-1.2,0.1-2.5,0.3-4,0.4l-0.2-1.2c1.5-0.1,2.9-0.2,4.1-0.3v-1.3c0.7-0.5,1.3-1.1,1.9-1.7h-2.8c-0.9,0.7-1.8,1.4-2.8,1.9l-0.8-0.9
	c0.6-0.3,1.1-0.7,1.6-1H150v-1.2h1.9c0.6-0.5,1.2-1.1,1.7-1.6h-4.5v-1.2h3.2v-1.8H150v-1.1H152.4z M158,73.2l-0.8-1
	c1.3-2.2,2.1-4.7,2.3-7.2l1.3,0.2c-0.1,0.9-0.3,1.8-0.5,2.6h4.7V69h-1.1c0,2.6-0.6,5.1-1.8,7.4c0.8,1.5,2,2.8,3.4,3.9l-0.6,1.1
	c-1.4-1-2.5-2.4-3.4-3.9c-1.1,1.6-2.5,2.9-4.1,3.9l-0.7-1.2c1.7-1,3.1-2.3,4.1-4c-0.8-1.6-1.3-3.4-1.6-5.1
	C158.9,71.9,158.5,72.6,158,73.2z M160,69C160,69,160,69,160,69c0.2,2.1,0.6,4.1,1.4,6c0.8-1.9,1.2-3.9,1.3-6L160,69z"/>
<path class="st14" d="M180.7,71.4v1.2c-1.3,0.8-2.6,1.6-4,2.2v0.9h6.9v1.2h-6.9v3c0,1-0.5,1.5-1.5,1.5h-2.3l-0.3-1.2
	c0.6,0,1.4,0,2.1,0c0.4,0,0.7-0.3,0.7-0.8v-2.6h-7.3v-1.2h7.3v-1.4c1.5-0.7,2.6-1.2,3.4-1.6H171v-1.2L180.7,71.4z M183.5,72.7h-1.3
	v-2.8h-12.7v2.8h-1.2v-4h10.3c0.8-1.2,1.5-2.4,2-3.8l1.3,0.5c-0.6,1.2-1.2,2.2-2,3.3h3.5L183.5,72.7z M172.7,68l-1.1,0.6
	c-0.6-1-1.2-1.9-1.9-2.8l1.2-0.6C171.5,66.1,172.1,67,172.7,68z M176.9,67.8l-1.1,0.6c-0.5-1-1.1-2.1-1.7-3l1.2-0.6
	C175.8,65.8,176.4,66.7,176.9,67.8L176.9,67.8z"/>
<path class="st14" d="M190.1,70.5v7.7c0.5-0.5,1.1-1,1.6-1.6l0.3,1.3c-1,1-2,1.9-3.1,2.7l-0.5-1.2c0.2-0.2,0.4-0.5,0.4-0.8v-7h-2.5
	v-1.2L190.1,70.5z M191.5,67.9l-0.9,0.9c-0.9-1-1.9-1.9-3-2.7l0.9-0.9C189.6,66,190.6,66.9,191.5,67.9z M201.6,65.7v6.9h-3.9v1.7
	h4.8v1.2H199c0.9,1.7,2.3,3.2,4,4.2l-0.8,1c-1.8-1.4-3.3-3.2-4.2-5.3h-0.2v6h-1.2v-6h-0.2c-0.9,2.2-2.4,4-4.4,5.3l-0.7-1.1
	c1.7-1,3.1-2.5,4-4.2h-3.5v-1.2h4.7v-1.7h-3.8v-6.8H201.6z M196.6,68.6v-1.8h-2.6v1.8H196.6z M196.6,69.7h-2.6v1.8h2.6V69.7z
	 M197.8,68.6h2.7v-1.8h-2.7V68.6z M200.5,69.7h-2.7v1.8h2.7V69.7z"/>
<path class="st14" d="M208,69.9v-2.6c-0.8,0.1-1.6,0.2-2.4,0.3l-0.2-1.2c2-0.2,4-0.5,6-1.1l0.4,1.2c-0.8,0.2-1.7,0.4-2.6,0.6v2.8
	h2.3v1.2h-2.3v1c0.8,0.8,1.7,1.8,2.6,2.8l-0.7,1.1c-0.7-1.1-1.4-2-1.9-2.7v8.1H208v-8.2c-0.6,1.7-1.4,3.3-2.5,4.8l-0.6-1.4
	c1.4-1.6,2.4-3.5,2.9-5.5h-2.5v-1.2H208z M221.1,72.5v1.2h-3.9V76h3.4v1.2h-3.4v2.4h4.4v1.2h-10.1v-1.2h4.4v-2.4h-3.3V76h3.3v-2.3
	h-3.7v-1.2L221.1,72.5z M220.3,65.7v5.2h-7.5v-5.2H220.3z M219,66.8h-4.9v2.9h4.9V66.8z"/>
<path class="st14" d="M228.2,68.6v-3.7h1.3v3.7h5.1V65h1.3v3.7h3.3v1.2h-3.3v4.3h4.2v1.3H224v-1.3h4.2v-4.3h-3.3v-1.3H228.2z
	 M230.5,77c-1.6,1.8-3.5,3.3-5.6,4.4l-0.9-1.2c2-1.1,3.9-2.5,5.5-4.2L230.5,77z M234.6,74.2v-4.3h-5.1v4.3L234.6,74.2z M240.1,80.4
	l-1,1c-1.6-1.6-3.4-3.1-5.3-4.4l0.9-0.9C236.6,77.4,238.4,78.8,240.1,80.4L240.1,80.4z"/>
<path class="st14" d="M250.4,77v-0.7c1.1-0.4,2.4-1,3.9-1.6h-10.1v-1.2h12.6v0.9c-1.5,0.7-3.3,1.4-5.2,2.2V77h7.2v1.2h-7.2v1.7
	c0.1,0.8-0.4,1.5-1.2,1.6c-0.1,0-0.3,0-0.4,0h-2.5l-0.4-1.2c1,0.1,1.8,0.1,2.4,0.1s0.8-0.3,0.8-0.9v-1.3h-7.9V77H250.4z M251.4,66.5
	h7.2v1.2h-15.6v-1.2h7c-0.3-0.5-0.5-0.9-0.9-1.3l1.5-0.2C250.9,65.4,251.1,66,251.4,66.5L251.4,66.5z M256.2,68.8v3.6h-10.8v-3.6
	L256.2,68.8z M254.9,69.9h-8.3v1.4h8.3V69.9z"/>
<path class="st14" d="M276.8,65.8v1.3h-6.7v6.8h7.4v1.2h-7.4v6.4h-1.3v-6.4h-7.2v-1.2h7.2v-6.8h-6.5v-1.3H276.8z M266.4,72.3
	l-1.2,0.6c-0.5-1.4-1.2-2.8-1.9-4.1l1.2-0.6C265.1,69.5,265.8,70.9,266.4,72.3z M275.8,68.7c-0.6,1.5-1.3,2.9-2.1,4.2l-1.1-0.6
	c0.8-1.3,1.5-2.7,2.1-4.1L275.8,68.7z"/>
<path class="st14" d="M280.7,70.9c1.6-0.5,3.5-2.5,5.9-6l1.3,0.4c-1.4,2-3,3.9-4.9,5.5c3.5-0.2,6.7-0.4,9.8-0.7
	c-0.7-0.9-1.4-1.8-2.1-2.7l1.2-0.6c1.6,1.9,3,3.9,4.3,6l-1.3,0.6c-0.5-0.8-0.9-1.4-1.3-2.1c-3.8,0.3-8,0.6-12.7,0.8L280.7,70.9z
	 M294.2,81.5h-1.3v-0.9h-9.4v0.9h-1.3V74h12L294.2,81.5z M292.9,79.4v-4.1h-9.4v4.1H292.9z"/>
</svg>
