<svg id="图层_1" data-name="图层 1" xmlns="http://www.w3.org/2000/svg" xmlns:xlink="http://www.w3.org/1999/xlink" viewBox="0 0 296.21 81.6"><defs><style>.cls-1{fill:url(#未命名的渐变_16);}.cls-2{fill:url(#未命名的渐变_16-2);}.cls-3{fill:url(#未命名的渐变_16-3);}.cls-4{fill:url(#未命名的渐变_16-4);}.cls-5{fill:url(#未命名的渐变_16-5);}.cls-6{fill:url(#未命名的渐变_16-6);}.cls-7{fill:url(#未命名的渐变_16-7);}.cls-8{font-size:24px;fill:#209d2a;font-family:MicrosoftYaHei, Microsoft YaHei;letter-spacing:0.11em;}.cls-9{fill:url(#未命名的渐变_16-8);}.cls-10{fill:url(#未命名的渐变_16-9);}.cls-11{fill:url(#未命名的渐变_16-10);}.cls-12{fill:#868686;}</style><linearGradient id="未命名的渐变_16" x1="53" y1="87" x2="53" y2="60" gradientUnits="userSpaceOnUse"><stop offset="0" stop-color="#4444be"/><stop offset="1" stop-color="#279ede"/></linearGradient><linearGradient id="未命名的渐变_16-2" x1="78.5" x2="78.5" y2="60.35" xlink:href="#未命名的渐变_16"/><linearGradient id="未命名的渐变_16-3" x1="112.5" x2="112.5" y2="60" xlink:href="#未命名的渐变_16"/><linearGradient id="未命名的渐变_16-4" x1="140.49" y1="76" x2="140.49" y2="71" xlink:href="#未命名的渐变_16"/><linearGradient id="未命名的渐变_16-5" x1="211" x2="211" y2="61.02" xlink:href="#未命名的渐变_16"/><linearGradient id="未命名的渐变_16-6" x1="236.5" x2="236.5" y2="62.99" xlink:href="#未命名的渐变_16"/><linearGradient id="未命名的渐变_16-7" x1="114.5" y1="-26" x2="114.5" y2="-83" gradientTransform="translate(-82 113)" xlink:href="#未命名的渐变_16"/><linearGradient id="未命名的渐变_16-8" x1="191.01" x2="191.01" y2="82" xlink:href="#未命名的渐变_16"/><linearGradient id="未命名的渐变_16-9" x1="251.5" y1="-26" x2="251.5" y2="-53.99" gradientTransform="translate(-85 113)" xlink:href="#未命名的渐变_16"/><linearGradient id="未命名的渐变_16-10" x1="268.5" x2="268.5" y2="62.97" xlink:href="#未命名的渐变_16"/></defs><path class="cls-1" d="M42,62.58V82s.07,5,5,5H64V82H47V60H42Z" transform="translate(-29.7 -30)"/><path class="cls-2" d="M66.5,87l11-21,10,16h-10c-.08.08-3,5-3,5h22l-14-23c-2.2-4.52-7.2-5.18-10,0l-12,23Z" transform="translate(-29.7 -30)"/><path class="cls-3" d="M119,87c3.82,0,7-4.06,7-8h0c0-2.25-1-6-3-6,2,0,3-2.78,3-5h0c0-3.94-2.9-8-7-8H99V87ZM103,71c0,1.28,0,5,0,5h14c1.92,0,4,.57,4,3h0c0,2.3-2,3-4,3H103V65h14c1.88,0,4,.87,4,3,0,1.94-2,3-4,3Z" transform="translate(-29.7 -30)"/><path class="cls-4" d="M148.5,76V71h-16c0,2,0,3,0,5Z" transform="translate(-29.7 -30)"/><path class="cls-5" d="M218.16,62.48a12.54,12.54,0,0,0-17,5,13.55,13.55,0,0,0-1.63,6.59,13.38,13.38,0,0,0,3.34,9.06c2.22,2.57,5.31,3.85,9.24,3.85a11.79,11.79,0,0,0,10.18-5.12l-4.46-3.39a6.83,6.83,0,0,1-5.87,2.86,6.44,6.44,0,0,1-4.92-2,7.24,7.24,0,0,1-1.87-5.15,7.49,7.49,0,0,1,1.95-5.34,6.66,6.66,0,0,1,5.1-2.08,6.91,6.91,0,0,1,3,.61,8,8,0,0,1,2.58,2.13l4.68-2.86A11.36,11.36,0,0,0,218.16,62.48Z" transform="translate(-29.7 -30)"/><path class="cls-6" d="M229.13,66.11A11.89,11.89,0,0,0,225.5,75a12.18,12.18,0,0,0,3.18,8.53,10,10,0,0,0,7.7,3.48A10.54,10.54,0,0,0,242,85.42a11.08,11.08,0,0,0,4-4.4,13.12,13.12,0,0,0,0-12,11,11,0,0,0-4.07-4.4,10.61,10.61,0,0,0-5.63-1.6,10,10,0,0,0-7.22,3.12Zm11.45,4.11a7.88,7.88,0,0,1,0,9.57,5.42,5.42,0,0,1-8.17,0,7.89,7.89,0,0,1,0-9.58,5.47,5.47,0,0,1,8.21,0Z" transform="translate(-29.7 -30)"/><path class="cls-7" d="M30,87h5V40H30Zm0-57v5h5V30Z" transform="translate(-29.7 -30)"/><text class="cls-8" transform="translate(11.77 21.02)">实验空间</text><path class="cls-9" d="M193.5,87V82h-5c0,2,0,3,0,5Z" transform="translate(-29.7 -30)"/><path class="cls-10" d="M158.19,59H151.5l14,17,9.15,11h6.8L170.5,73Zm23.3,0h-6.34l-6.71,6.7,3.94,4.63Zm-30,28h6.69l6.25-7.78-3.94-4.91Z" transform="translate(-29.7 -30)"/><path class="cls-11" d="M252.51,87h5V73a3.67,3.67,0,0,1,1-3,3.53,3.53,0,0,1,3-1,4.06,4.06,0,0,1,3,1,4.85,4.85,0,0,1,1,3V87h6V73a4.15,4.15,0,0,1,1-3,5.19,5.19,0,0,1,3-1c1.17,0,2-.1,3,1,.78.9,1.06,2.1,1,4V87h5V70a7.39,7.39,0,0,0-3.17-5.73A9.29,9.29,0,0,0,276.5,63a7.27,7.27,0,0,0-4,1,13.73,13.73,0,0,0-4,4c-.66-1.49-2.58-3-4-4a7.85,7.85,0,0,0-4-1c-3.61.35-5,2-5,2a6.68,6.68,0,0,0-3,5V87Z" transform="translate(-29.7 -30)"/><path class="cls-12" d="M44.5,111.46H43.19v-.78H31v.78H29.7V95.81H44.5Zm-1.31-2V97H31v12.43ZM41.55,98.67v1.17H37.77v2.59H41v1.16H37.77v2.86h4.3v1.19H32.15v-1.19h4.29v-2.86H33.21v-1.16h3.23V99.84h-3.8V98.67ZM41.06,106l-1,.46a11.47,11.47,0,0,0-1.19-2.1l1-.35A11.29,11.29,0,0,1,41.06,106Z" transform="translate(-29.7 -30)"/><path class="cls-12" d="M57.55,104.78a9.5,9.5,0,0,1,.47,2.8,5.46,5.46,0,0,1-.58,3c-.43.61-1.44.93-3,.93h-.61l-.43-1.13h.86c1.07,0,1.73-.18,2-.49a3.71,3.71,0,0,0,.49-2.27c0-.32,0-.61-.07-.9a23.92,23.92,0,0,1-7.91,3.86l-.65-1.12a23.18,23.18,0,0,0,8.3-4,7.85,7.85,0,0,0-.52-1.35A19.94,19.94,0,0,1,49,107.33l-.65-1.11a19.58,19.58,0,0,0,7-3.07,6.59,6.59,0,0,0-.72-.93,3.55,3.55,0,0,0-.39.2,34.45,34.45,0,0,1-4.9,1.72l-.67-1.06a25.87,25.87,0,0,0,4.69-1.46,19.82,19.82,0,0,0,1.85-.9H50.44v-1.2H61.22v1.2H57.1c-.5.35-1,.67-1.48,1a8.49,8.49,0,0,1,1.52,2.11,17.1,17.1,0,0,0,4.77-2.18l.88.88a15.91,15.91,0,0,1-3.1,1.6,11.39,11.39,0,0,0,4.14,5.42l-.91,1.06a13.31,13.31,0,0,1-4.27-6.1Zm-.9-8.22h6.77V99.7H62.14V97.77H49.5V99.7H48.22V96.56h7.13a12,12,0,0,0-.63-1.47L56,94.85C56.25,95.36,56.45,95.93,56.65,96.56Z" transform="translate(-29.7 -30)"/><path class="cls-12" d="M74.52,104.31c-1.11,0-1.65-.52-1.65-1.57v-.61l-2.9.32-.16-1.08,3.06-.34V99.32h-3.8V104a15.79,15.79,0,0,1-1.73,7.62l-1-.92A14.42,14.42,0,0,0,67.79,104V98.17h5.74v-3.3h1.32V96H80.7V97H74.85v1.14h7.2v.59a13.73,13.73,0,0,1-.88,2.65l-1.24-.34a12.09,12.09,0,0,0,.73-1.75H74.15v1.57l4.89-.54.17,1.08-5.06.55v.47c0,.51.23.78.7.78h3.91a1.92,1.92,0,0,0,.91-.18,2.21,2.21,0,0,0,.47-1.39l1.17.38c-.12,1.06-.38,1.71-.75,2a3.11,3.11,0,0,1-1.57.31Zm.26.65v5h2v-5H78v5h4.39v1.18H69.1V110h4.43v-5Zm-2.11,3.87-1.1.46a25.31,25.31,0,0,0-1.69-3.71l1.1-.43A24.66,24.66,0,0,1,72.67,108.83Zm9.15-3.16a19.87,19.87,0,0,1-2,3.64l-1.08-.56a19.38,19.38,0,0,0,2-3.58Z" transform="translate(-29.7 -30)"/><path class="cls-12" d="M85.65,111.24,85.38,110a11.26,11.26,0,0,0,1.38.09c.43,0,.67-.28.67-.84v-4.2c-.69.26-1.35.49-2,.71l-.28-1.25a17.2,17.2,0,0,0,2.32-.7V99.54H85.32V98.29h2.11V95h1.26v3.31h1.84v1.25H88.69v3.78c.65-.29,1.3-.62,1.94-1v1.26c-.63.33-1.27.65-1.94.94v5c0,1.1-.5,1.66-1.5,1.66ZM90.78,108a1,1,0,0,0,.65-.86V95.5h1.22v11.8A27.27,27.27,0,0,0,95.21,106l.34,1.13a28.34,28.34,0,0,1-4.38,2Zm9.07-12.85a40.2,40.2,0,0,1-.81,8.73,16.73,16.73,0,0,1-.52,1.82,41.36,41.36,0,0,1,3.06,5l-1,.71A40.76,40.76,0,0,0,98,106.9a13.74,13.74,0,0,1-3.68,4.59l-.81-1a12.37,12.37,0,0,0,4.27-6.71,38.52,38.52,0,0,0,.81-8.68Zm-2.77,6.62-1.06.49a33.32,33.32,0,0,0-2.13-4.81L95,97.07A33.55,33.55,0,0,1,97.08,101.73Z" transform="translate(-29.7 -30)"/><path class="cls-12" d="M109,95.47a21.22,21.22,0,0,1-1.54,3.58v12.48h-1.29V101.14a21.15,21.15,0,0,1-2.11,2.55l-.41-1.38a20.5,20.5,0,0,0,4.12-7.4ZM109,99V97.79h5a18.11,18.11,0,0,0-1.06-2.67l1.41-.23c.32.85.65,1.82.95,2.9H120V99h-7v1.62c0,.51,0,1,0,1.48h5.87a48,48,0,0,1-.42,7.43,2.17,2.17,0,0,1-2.23,1.77c-.75,0-1.66,0-2.68-.07l-.38-1.16c1.15,0,2.13.08,2.92.08s1.15-.49,1.29-1.35.17-2.67.2-5.48h-4.68c-.4,3.57-1.49,6.25-3.33,8.09l-1-.89c2.11-2,3.19-5.34,3.22-9.9V99Z" transform="translate(-29.7 -30)"/><path class="cls-12" d="M130.27,96.29l.16-1.36,1.32.18c0,.39-.09.79-.15,1.18H138v1.14H131.4c-.07.4-.16.79-.25,1.19h5.13v8.48h2.38v1.17h-5.37a27.6,27.6,0,0,1,5.12,2.27l-.67,1a23.44,23.44,0,0,0-5.09-2.43l.57-.86h-5.15l.76.86a17.59,17.59,0,0,1-5.11,2.41l-.54-1.09a15.67,15.67,0,0,0,4.86-2.18h-5.3V107.1h2.67V98.62h4.43c.09-.4.18-.79.25-1.19h-6.68V96.29ZM135,100.8V99.66h-8.39v1.14Zm0,2.08v-1.09h-8.39v1.09Zm0,2.08v-1.1h-8.39V105Zm0,2.14V106h-8.39v1.15Z" transform="translate(-29.7 -30)"/><path class="cls-12" d="M142.38,111.51l-.72-1.1c3.35-.86,5.69-2,7-3.47a6.74,6.74,0,0,0,.58-.82h-7.44V104.9h8.07a10.73,10.73,0,0,0,.77-3.82V99h1.26v2.12a12.9,12.9,0,0,1-.66,3.82H157v1.22h-6.32c-.16.29-.33.56-.49.82a39.26,39.26,0,0,1,7,3.54l-.7,1.12a36,36,0,0,0-7.06-3.71C148.05,109.44,145.68,110.64,142.38,111.51Zm14.35-11.31h-1.26V98H143.34v2.25h-1.26V96.74h6.84a12,12,0,0,0-.74-1.65l1.33-.22c.24.54.47,1.17.7,1.87h6.52Zm-8.91,3.21-.67,1a15.52,15.52,0,0,0-3.58-2l.65-1A19.13,19.13,0,0,1,147.82,103.41Zm1.73-2.51-.67,1a16.53,16.53,0,0,0-3.71-2.11l.67-1A18.2,18.2,0,0,1,149.55,100.9Z" transform="translate(-29.7 -30)"/><path class="cls-12" d="M163.84,107.15a24.51,24.51,0,0,1-4,1.1l-.16-1.22a24.47,24.47,0,0,0,4.18-1ZM160.15,97V95.81h5.65l-.86,7.42h1.11c0,4.1-.18,6.46-.52,7.09a2.39,2.39,0,0,1-2.23.94c-.42,0-.85,0-1.28-.06l-.34-1.15c.63.07,1.08.11,1.33.11.87,0,1.39-.29,1.57-.83a24,24,0,0,0,.29-5h-4.6l.85-6.18,1.19.08-.72,5h2.12l.8-6.23Zm6.53,5.2-.68-1a15.25,15.25,0,0,0,4.66-6.11h1.19a14.1,14.1,0,0,0,4.72,6l-.7,1.08a15.1,15.1,0,0,1-2.07-1.89v1.12h-5.06v-1.12A16.16,16.16,0,0,1,166.68,102.2Zm5.69,7.42a47.89,47.89,0,0,0,1.84-7.11l1.24.3a45.65,45.65,0,0,1-1.82,6.81h2.72v1.24h-9.83v-1.24Zm-2.64-1.42-1.12.27a35.43,35.43,0,0,0-1.55-5.06l1.12-.38A42.51,42.51,0,0,1,169.73,108.2Zm1.53-11.89a16.84,16.84,0,0,1-2.47,3.89h5A14.84,14.84,0,0,1,171.26,96.31Zm1,11.11-1.14.27a33.1,33.1,0,0,0-1.3-4.84l1.12-.34A43.29,43.29,0,0,1,172.27,107.42Z" transform="translate(-29.7 -30)"/><path class="cls-12" d="M182.07,96.69v-1.6h1.24v1.6h1.93v1.15h-1.93v1.84h1.05a22.91,22.91,0,0,0,2.47-3.91l1,.52a30.44,30.44,0,0,1-2.05,3.39h1.33v1.21h-2.25q-.72.85-1.47,1.62h3.06v.93a20,20,0,0,1-2.16,2.16v.89a29.19,29.19,0,0,0,3.2-.67V107a28.77,28.77,0,0,1-3.2.63v2.08a1.39,1.39,0,0,1-1.57,1.57H181l-.33-1.17c.67,0,1.21.09,1.6.09a.73.73,0,0,0,.8-.83v-1.56c-1.19.14-2.52.28-4,.41l-.18-1.24c1.51-.07,2.88-.2,4.14-.34v-1.32a14,14,0,0,0,1.89-1.69h-2.79a18.74,18.74,0,0,1-2.79,1.92l-.81-.91c.57-.33,1.11-.67,1.62-1h-.42v-1.15h1.91c.61-.53,1.17-1.07,1.69-1.62h-4.46V99.68h3.2V97.84h-2.36V96.69Zm5.64,6.52-.78-1A17.68,17.68,0,0,0,189.26,95l1.28.22c-.15.92-.33,1.76-.51,2.55h4.68V99H193.6a17.27,17.27,0,0,1-1.79,7.42,12.92,12.92,0,0,0,3.37,3.9l-.65,1.14a13.06,13.06,0,0,1-3.42-3.87,13.34,13.34,0,0,1-4.07,3.87l-.72-1.17a11.63,11.63,0,0,0,4.13-4,19.46,19.46,0,0,1-1.57-5.14A13.63,13.63,0,0,1,187.71,103.21Zm2-4.23a.21.21,0,0,0,0,.1,19.18,19.18,0,0,0,1.44,5.93,15.9,15.9,0,0,0,1.28-6Z" transform="translate(-29.7 -30)"/><path class="cls-12" d="M210.44,101.41v1.15a40.14,40.14,0,0,1-4,2.22v.91h6.86v1.23h-6.86v3c0,1-.52,1.46-1.53,1.46h-2.28l-.31-1.19c.65,0,1.37,0,2.14,0,.44,0,.67-.26.67-.76v-2.59h-7.29v-1.23h7.29V104.2c1.51-.67,2.65-1.21,3.44-1.64h-7.85v-1.15Zm2.74,1.26H211.9V99.88H199.24v2.79H198v-4H208.3a21.21,21.21,0,0,0,2-3.76l1.32.49a19.88,19.88,0,0,1-2,3.27h3.47ZM202.4,98l-1.12.56a22.21,22.21,0,0,0-1.91-2.81l1.17-.58A26.13,26.13,0,0,1,202.4,98Zm4.21-.2-1.15.58a20.58,20.58,0,0,0-1.73-3l1.17-.58A29.4,29.4,0,0,1,206.61,97.77Z" transform="translate(-29.7 -30)"/><path class="cls-12" d="M219.82,100.49v7.71c.52-.47,1.06-1,1.64-1.57l.34,1.33a25.28,25.28,0,0,1-3.12,2.65l-.5-1.15a1,1,0,0,0,.38-.76v-7h-2.5v-1.24Zm1.4-2.59-.88.88a19.05,19.05,0,0,0-3-2.72l.91-.88A21.29,21.29,0,0,1,221.22,97.9Zm10.12-2.22v6.88h-3.85v1.67h4.75v1.21h-3.56a11.55,11.55,0,0,0,4,4.25l-.83,1a13.58,13.58,0,0,1-4.21-5.28h-.16v6h-1.21v-6h-.16a11.65,11.65,0,0,1-4.37,5.31l-.67-1.1a10.28,10.28,0,0,0,4-4.21h-3.54v-1.21h4.71v-1.67h-3.81V95.68Zm-5.06,2.94v-1.8h-2.63v1.8Zm0,1.06h-2.63v1.78h2.63Zm1.21-1.06h2.66v-1.8h-2.66Zm2.66,1.06h-2.66v1.78h2.66Z" transform="translate(-29.7 -30)"/><path class="cls-12" d="M237.69,99.91V97.3c-.75.11-1.55.22-2.36.31l-.25-1.23a29.33,29.33,0,0,0,6-1.13l.45,1.22c-.81.24-1.67.44-2.57.62v2.82h2.32v1.25h-2.32v1c.84.83,1.71,1.77,2.57,2.79l-.72,1.08c-.72-1.11-1.35-2-1.85-2.68v8.12h-1.25V103.3a19.25,19.25,0,0,1-2.48,4.77l-.56-1.44a14.27,14.27,0,0,0,2.92-5.47h-2.51V99.91Zm13.06,2.61v1.19h-3.93V106h3.37v1.17h-3.37v2.43h4.36v1.22h-10.1v-1.22h4.41v-2.43h-3.28V106h3.28v-2.31H241.8v-1.19ZM250,95.65v5.2H242.5v-5.2Zm-1.26,1.15h-4.93v2.88h4.93Z" transform="translate(-29.7 -30)"/><path class="cls-12" d="M257.89,98.63V94.89h1.31v3.74h5.08V95h1.32v3.67h3.29V99.9H265.6v4.33h4.17v1.27H253.71v-1.27h4.18V99.9h-3.28V98.63Zm2.29,8.38a22.64,22.64,0,0,1-5.57,4.45l-.9-1.16a21.32,21.32,0,0,0,5.49-4.18Zm4.1-2.78V99.9H259.2v4.33Zm5.47,6.18-1,1a33.06,33.06,0,0,0-5.26-4.38l.94-.9A37.75,37.75,0,0,1,269.75,110.41Z" transform="translate(-29.7 -30)"/><path class="cls-12" d="M280.14,107v-.7c1.11-.43,2.43-1,3.94-1.59H274v-1.17h12.64v.94c-1.51.7-3.26,1.42-5.22,2.18V107h7.25v1.19h-7.25v1.67a1.44,1.44,0,0,1-1.61,1.64h-2.53l-.35-1.19c1,.06,1.8.09,2.38.09s.83-.3.83-.92v-1.29h-7.89V107Zm.93-10.5h7.21v1.23H272.65V96.49h7a11.87,11.87,0,0,0-.86-1.31l1.47-.24A12.47,12.47,0,0,1,281.07,96.49Zm4.79,2.31v3.63H275.08V98.8Zm-1.24,1.11h-8.3v1.41h8.3Z" transform="translate(-29.7 -30)"/><path class="cls-12" d="M306.47,95.79v1.26h-6.69v6.81h7.38v1.24h-7.38v6.37h-1.34V105.1h-7.23v-1.24h7.23V97.05h-6.51V95.79Zm-10.4,6.54-1.21.59a32.51,32.51,0,0,0-1.94-4.12l1.2-.6A39.77,39.77,0,0,1,296.07,102.33Zm9.45-3.66a22.64,22.64,0,0,1-2.14,4.18l-1.15-.6a23.4,23.4,0,0,0,2.1-4.14Z" transform="translate(-29.7 -30)"/><path class="cls-12" d="M310.36,100.92c1.58-.54,3.55-2.54,5.89-6l1.33.45a27.51,27.51,0,0,1-4.88,5.48c3.46-.15,6.73-.38,9.83-.67a33.65,33.65,0,0,0-2.11-2.72l1.17-.56a46,46,0,0,1,4.32,6l-1.26.61c-.45-.75-.9-1.45-1.33-2.14q-5.7.51-12.71.78Zm13.56,10.59H322.6v-.9h-9.4v.9h-1.31V104h12Zm-1.32-2.14v-4.13h-9.4v4.13Z" transform="translate(-29.7 -30)"/></svg>